<svg id="visual" viewBox="0 0 600 600" width="600" height="600" xmlns="http://www.w3.org/2000/svg" xmlns:xlink="http://www.w3.org/1999/xlink" version="1.1">
  <mask id="mask0" mask-type="alpha">
    <path d="M235.4 -238.8C294.1 -176.8 323.1 -88.4 295.4 -27.7C267.7 33 183.3 66 124.7 89.3C66 112.7 33 126.3 -0.1 126.4C-33.1 126.5 -66.3 113 -111 89.6C-155.6 66.3 -211.8 33.1 -218.3 -6.5C-224.9 -46.2 -181.7 -92.4 -137.1 -154.4C-92.4 -216.4 -46.2 -294.2 21.1 -315.3C88.4 -336.4 176.8 -300.8 235.4 -238.8" fill="#FF5277"></path>
  </mask>
  <g mask="url(#mask0)">
    <path d="M235.4 -238.8C294.1 -176.8 323.1 -88.4 295.4 -27.7C267.7 33 183.3 66 124.7 89.3C66 112.7 33 126.3 -0.1 126.4C-33.1 126.5 -66.3 113 -111 89.6C-155.6 66.3 -211.8 33.1 -218.3 -6.5C-224.9 -46.2 -181.7 -92.4 -137.1 -154.4C-92.4 -216.4 -46.2 -294.2 21.1 -315.3C88.4 -336.4 176.8 -300.8 235.4 -238.8" fill="#FF5277"></path>
    <image xlink:href=""/>
  </g>
</svg>

<svg viewBox="0 0 200 187" xmlns="http://www.w3.org/2000/svg" xmlns:xlink="http://www.w3.org/1999/xlink">
    <mask id="mask0" mask-type="alpha">
        <path d="M190.312 36.4879C206.582 62.1187 201.309 102.826 182.328 134.186C163.346 165.547 
        130.807 187.559 100.226 186.353C69.6454 185.297 41.0228 161.023 21.7403 129.362C2.45775 
        97.8511 -7.48481 59.1033 6.67581 34.5279C20.9871 10.1032 59.7028 -0.149132 97.9666 
        0.00163737C136.23 0.303176 174.193 10.857 190.312 36.4879Z"/>
    </mask>
    <g mask="url(#mask0)">
        <path d="M190.312 36.4879C206.582 62.1187 201.309 102.826 182.328 134.186C163.346 
        165.547 130.807 187.559 100.226 186.353C69.6454 185.297 41.0228 161.023 21.7403 
        129.362C2.45775 97.8511 -7.48481 59.1033 6.67581 34.5279C20.9871 10.1032 59.7028 
        -0.149132 97.9666 0.00163737C136.23 0.303176 174.193 10.857 190.312 36.4879Z"/>
        <image href=""/>
    </g>
</svg>